<svg xmlns="http://www.w3.org/2000/svg" viewBox="0 0 680 390"><rect width="680" height="390" fill="#171a1d"/><g stroke="#fff" opacity=".12"><path d="M0 65h680M0 130h680M0 195h680M0 260h680M0 325h680"/><path d="M85 0v390M170 0v390M255 0v390M340 0v390M425 0v390M510 0v390M595 0v390"/></g><g fill="none" stroke="#ff5948" stroke-width="2"><path d="M160 196h120M400 196h120M340 116v-52M340 276v52"/><circle cx="340" cy="196" r="66"/></g><g fill="#f2eee7" stroke="#555d66" stroke-width="2"><rect x="94" y="157" width="132" height="78" rx="8"/><rect x="454" y="157" width="132" height="78" rx="8"/><rect x="276" y="38" width="128" height="62" rx="8"/><rect x="276" y="292" width="128" height="62" rx="8"/></g><circle cx="340" cy="196" r="42" fill="#111315" stroke="#ff5948" stroke-width="3"/><path d="M323 201l17-29 17 29-17 29z" fill="#ff5948"/><g font-family="Arial,sans-serif" font-size="12" fill="#111315" text-anchor="middle"><text x="160" y="190">MODERATION</text><text x="160" y="210">RULES</text><text x="520" y="190">SCHEDULED</text><text x="520" y="210">ACTIONS</text><text x="340" y="65">KNOWLEDGE</text><text x="340" y="82">LIBRARY</text><text x="340" y="320">GOVERNANCE</text><text x="340" y="337">WORKFLOWS</text></g><g fill="#ff5948"><circle cx="280" cy="196" r="5"/><circle cx="400" cy="196" r="5"/><circle cx="340" cy="130" r="5"/><circle cx="340" cy="262" r="5"/></g></svg>