<svg xmlns="http://www.w3.org/2000/svg" viewBox="0 0 680 390"><rect width="680" height="390" fill="#090d11"/><g fill="none" stroke="#20c9ff" stroke-width="2"><path d="M100 195h110M470 195h110M340 70v70M340 250v70"/><rect x="250" y="140" width="180" height="110" rx="12"/></g><g fill="#111820" stroke="#5a6670" stroke-width="2"><rect x="55" y="150" width="125" height="90" rx="10"/><rect x="500" y="150" width="125" height="90" rx="10"/><rect x="278" y="28" width="124" height="72" rx="10"/><rect x="278" y="290" width="124" height="72" rx="10"/></g><g font-family="Arial,sans-serif" text-anchor="middle"><text x="340" y="180" font-size="12" fill="#20c9ff">SIGNED PROOF BUNDLE</text><text x="340" y="212" font-size="30" fill="#fff">VERIFIED</text><text x="117" y="188" font-size="12" fill="#aeb6bf">EVENT</text><text x="117" y="208" font-size="12" fill="#aeb6bf">CAPTURE</text><text x="562" y="188" font-size="12" fill="#aeb6bf">AUDIT</text><text x="562" y="208" font-size="12" fill="#aeb6bf">RECORD</text><text x="340" y="58" font-size="12" fill="#aeb6bf">HASH + SIGN</text><text x="340" y="325" font-size="12" fill="#aeb6bf">SELECTIVE DISCLOSURE</text></g><g fill="#20c9ff"><circle cx="210" cy="195" r="5"/><circle cx="470" cy="195" r="5"/><circle cx="340" cy="140" r="5"/><circle cx="340" cy="250" r="5"/></g><path d="M340 226l-22-12v-28l22-12 22 12v28z" fill="none" stroke="#ff5948" stroke-width="3"/></svg>