<svg xmlns="http://www.w3.org/2000/svg" viewBox="0 0 920 620" role="img" aria-label="Abstract Nova Wallet product interface"><defs><linearGradient id="g" x1="0" y1="0" x2="1" y2="1"><stop stop-color="#20262d"/><stop offset="1" stop-color="#0c1014"/></linearGradient><filter id="s"><feDropShadow dx="0" dy="24" stdDeviation="22" flood-opacity=".35"/></filter></defs><rect width="920" height="620" fill="url(#g)"/><g opacity=".18" stroke="#fff"><path d="M0 100h920M0 200h920M0 300h920M0 400h920M0 500h920"/><path d="M100 0v620M200 0v620M300 0v620M400 0v620M500 0v620M600 0v620M700 0v620M800 0v620"/></g><ellipse cx="680" cy="130" rx="180" ry="70" fill="none" stroke="#ff5948" opacity=".35"/><circle cx="540" cy="128" r="7" fill="#ff5948"/><g filter="url(#s)"><rect x="285" y="55" width="350" height="520" rx="42" fill="#11161b" stroke="#4b535c" stroke-width="3"/><rect x="310" y="88" width="300" height="454" rx="26" fill="#f2eee7"/><rect x="405" y="70" width="110" height="12" rx="6" fill="#333a42"/><text x="345" y="145" font-family="Arial,sans-serif" font-size="18" fill="#25282b">NOVA WALLET</text><text x="345" y="190" font-family="Georgia,serif" font-size="44" fill="#111315">£12,480.22</text><rect x="345" y="222" width="230" height="92" rx="16" fill="#111315"/><circle cx="390" cy="268" r="23" fill="#ff5948"/><path d="M382 269l8-14 8 14-8 14z" fill="#fff"/><text x="430" y="258" font-family="Arial,sans-serif" font-size="13" fill="#aaa59e">CEDRA</text><text x="430" y="282" font-family="Arial,sans-serif" font-size="22" fill="#fff">4,208.31</text><rect x="345" y="342" width="110" height="68" rx="12" fill="#ff5948"/><rect x="465" y="342" width="110" height="68" rx="12" fill="#ded8cf"/><text x="374" y="382" font-family="Arial,sans-serif" font-size="14" font-weight="700" fill="#fff">SEND</text><text x="493" y="382" font-family="Arial,sans-serif" font-size="14" font-weight="700" fill="#111315">RECEIVE</text><path d="M345 454h230M345 484h170" stroke="#bdb5aa" stroke-width="10" stroke-linecap="round"/></g></svg>